<?xml version="1.0" encoding="UTF-8" standalone="no"?>
<svg
   xmlns:dc="http://purl.org/dc/elements/1.1/"
   xmlns:cc="http://creativecommons.org/ns#"
   xmlns:rdf="http://www.w3.org/1999/02/22-rdf-syntax-ns#"
   xmlns:svg="http://www.w3.org/2000/svg"
   xmlns="http://www.w3.org/2000/svg"
   xmlns:sodipodi="http://sodipodi.sourceforge.net/DTD/sodipodi-0.dtd"
   xmlns:inkscape="http://www.inkscape.org/namespaces/inkscape"
   viewBox="0 0 100 100"
   style="background: #005"
   id="svg3037"
   version="1.1"
   inkscape:version="0.48.4 r9939"
   width="100%"
   height="100%"
   sodipodi:docname="SqWater.svg">
  <metadata
     id="metadata3045">
    <rdf:RDF>
      <cc:Work
         rdf:about="">
        <dc:format>image/svg+xml</dc:format>
        <dc:type
           rdf:resource="http://purl.org/dc/dcmitype/StillImage" />
        <dc:title></dc:title>
      </cc:Work>
    </rdf:RDF>
  </metadata>
  <defs
     id="defs3043" />
  <sodipodi:namedview
     pagecolor="#000055"
     bordercolor="#666666"
     borderopacity="1"
     objecttolerance="10"
     gridtolerance="10"
     guidetolerance="10"
     inkscape:pageopacity="1"
     inkscape:pageshadow="2"
     inkscape:window-width="640"
     inkscape:window-height="480"
     id="namedview3041"
     showgrid="false"
     inkscape:zoom="9.6"
     inkscape:cx="50"
     inkscape:cy="50"
     inkscape:current-layer="svg3037" />
  <path
     style="font-size:medium;font-style:normal;font-variant:normal;font-weight:normal;font-stretch:normal;text-indent:0;text-align:start;text-decoration:none;line-height:normal;letter-spacing:normal;word-spacing:normal;text-transform:none;direction:ltr;block-progression:tb;writing-mode:lr-tb;text-anchor:start;baseline-shift:baseline;color:#000000;fill:#40c0ff;fill-opacity:1;fill-rule:nonzero;stroke:none;stroke-width:80;marker:none;visibility:visible;display:inline;overflow:visible;enable-background:accumulate;font-family:Sans;-inkscape-font-specification:Sans"
     d="M 28.015025,69.329638 28.034537,69.329638 C 35.799,69.333501 41.724161,70.95171 52.059218,75.832734 56.209166,77.724464 61.720843,79.794292 63.43727,80.153837 L 63.476301,80.175343 63.515333,80.175343 C 70.08813,81.757107 80.427225,81.05566 85.510308,78.900582 L 85.510308,78.922216 C 85.819855,78.768972 86.169372,78.602593 86.720322,78.554945 87.356318,78.500086 88.389049,78.803484 89.003746,79.484069 90.233151,80.844982 89.960049,81.809004 89.960049,82.659961 89.960049,83.65386 89.622502,84.896298 88.945187,85.771078 88.267882,86.645858 87.429802,87.144353 86.525171,87.542788 84.715892,88.339272 82.389088,88.826048 78.777154,89.422413 L 78.757633,89.422413 78.738122,89.422413 C 73.55722,90.201255 70.313255,90.204861 64.764381,89.35751 L 64.74487,89.335875 64.705839,89.335875 C 60.415203,88.582016 55.156031,86.624224 45.228477,82.033462 L 45.208967,82.033462 C 34.481447,77.057658 24.540677,76.440946 14.470647,79.98089 13.514672,80.317899 12.101154,80.187834 11.191897,79.332757 10.281397,78.47652 10.021404,77.356678 10.001398,76.437727 9.9613861,74.599439 10.780029,72.835971 12.479976,71.857525 L 12.499496,71.857525 12.499496,71.835762 C 14.210537,70.861695 16.378384,70.383289 19.096031,69.956137 21.805667,69.530272 24.946069,69.295255 28.015025,69.329638 z M 26.024354,49.517815 C 26.50067,49.512046 26.980537,49.511853 27.468568,49.517815 28.02631,49.524615 28.575869,49.5386 29.146971,49.56102 L 29.166491,49.56102 29.186012,49.56102 C 37.382589,49.983047 41.630273,51.117724 51.571303,55.783279 51.577643,55.786241 51.584485,55.780292 51.590824,55.783279 55.558051,57.606526 60.85995,59.700255 62.81275,60.212246 L 62.832261,60.212246 C 67.751535,61.558349 77.305326,61.534654 81.685094,60.23388 L 81.704614,60.212246 81.724125,60.212246 C 84.270029,59.48158 85.309237,58.97116 87.032591,59.132015 87.463421,59.172322 88.036926,59.279619 88.613421,59.715387 89.189904,60.151206 89.610939,60.937774 89.764887,61.530276 90.07277,62.715021 89.873874,63.230644 89.803915,63.733903 89.636089,64.927019 88.668362,66.581414 87.57905,67.233926 86.451047,67.909617 85.282772,68.217136 83.402537,68.746279 L 83.363505,68.767914 83.343986,68.767914 C 77.411532,70.313235 68.102305,70.374661 62.012576,68.919227 L 61.993056,68.919227 C 59.515909,68.292342 55.392358,66.766466 52.234863,65.31116 52.230512,65.3091 52.219695,65.313092 52.215344,65.31116 41.275737,60.357248 37.761349,59.103736 32.620889,58.375838 27.518075,57.680083 19.213115,58.511401 16.773588,59.542594 15.340019,60.162667 14.313444,60.698893 12.636111,60.255515 11.794243,60.032989 10.772107,59.174318 10.391721,58.181437 10.023994,57.221574 10.07751,56.427961 10.177043,55.740062 10.17761,55.735516 10.176459,55.722986 10.177043,55.718453 10.179894,55.698931 10.17413,55.694591 10.177043,55.675249 10.456062,53.689898 11.766694,52.662839 12.94837,51.980786 14.145315,51.289912 15.538197,50.820971 17.163911,50.446823 19.653277,49.873909 22.690153,49.558122 26.024354,49.517815 z M 28.13212,29.576353 C 35.828411,29.607349 43.124237,31.915994 54.771992,37.332562 65.649371,42.455184 74.895956,43.006619 85.666443,39.363435 L 85.666443,39.385044 C 86.008736,39.261715 86.40048,39.134522 86.935004,39.147387 87.498563,39.16096 88.279946,39.404052 88.847611,39.946768 89.982943,41.032214 89.960049,42.232104 89.960049,43.057898 89.960049,43.900124 89.769598,44.917627 89.257456,45.780135 88.745313,46.642643 88.010625,47.251396 87.266793,47.659773 85.782398,48.474724 84.08407,48.810277 81.548479,49.23694 81.542887,49.23788 81.53457,49.236 81.528969,49.23694 75.153252,50.354336 72.336224,50.443359 67.496685,49.9499 L 67.477164,49.9499 C 61.484227,49.300904 56.546251,47.711335 48.507229,43.85728 L 48.487718,43.85728 C 45.088582,42.206877 40.012778,40.202351 37.656124,39.514671 32.142082,38.004365 23.206211,37.949686 17.964086,39.493062 L 17.964086,39.514671 C 16.138989,40.046364 15.013957,40.343027 13.885159,40.400487 13.320755,40.429205 12.684017,40.419701 11.933519,40.011582 11.204907,39.615374 10.619013,38.748398 10.391721,38.110348 L 10.372209,38.110348 C 10.368388,38.099556 10.37595,38.099621 10.372209,38.088739 10.369251,38.080085 10.355503,38.054098 10.352689,38.045522 L 10.372209,38.045522 C 10.074138,37.158842 9.9865181,35.997598 10.333178,34.999218 10.687841,33.977774 11.345378,33.258865 12.011582,32.752296 13.343575,31.73948 14.890713,31.264976 16.929714,30.851049 21.035586,30.012687 24.634366,29.562265 28.13212,29.576353 z M 27.546631,10.002174 C 27.553239,10.002135 27.559543,10.002238 27.566152,10.002174 35.818907,9.9333557 41.844573,11.488579 51.356627,16.051591 L 51.376147,16.051591 C 60.115019,20.313624 65.400554,21.683487 72.043997,21.690505 L 72.063516,21.690505 C 75.092309,21.622756 79.098171,21.240521 80.006682,20.999154 L 80.045722,20.999154 80.084754,20.999154 C 83.549401,20.204422 85.080398,19.739924 86.603227,19.724458 86.983931,19.720582 87.405257,19.748707 87.949855,19.962103 88.494465,20.175511 89.167604,20.710952 89.511165,21.34483 90.198299,22.612611 89.960049,23.275668 89.960049,23.634955 89.960049,24.568303 89.575646,25.817669 88.886651,26.616458 88.197644,27.415247 87.429232,27.814133 86.583707,28.150421 84.896752,28.821373 82.675336,29.253149 79.128445,29.878823 79.12047,29.880317 79.116909,29.87733 79.108934,29.878823 73.716842,30.882986 69.272886,30.810111 63.593404,29.597961 63.585564,29.596377 63.581725,29.599545 63.573885,29.597961 58.926229,28.653384 54.910126,27.078071 45.150415,22.576322 34.370619,17.576269 25.716482,17.014235 14.58775,20.610262 14.214556,20.728298 13.872212,20.85468 13.377733,20.912732 12.883246,20.970785 11.943769,20.987346 11.0748,20.156555 10.205825,19.325765 10.094764,18.265713 10.079461,17.71518 10.065614,17.216994 10.109815,16.87222 10.157523,16.50531 10.162541,16.466754 10.171991,16.436414 10.177043,16.397279 10.323548,15.240284 11.14238,13.583095 12.226268,12.854052 13.34567,12.101106 14.490843,11.777142 16.266163,11.27687 L 16.285673,11.27687 16.285673,11.255275 C 19.14052,10.465178 23.314556,10.003616 27.546631,10.002174 z"
     id="path2988"
     inkscape:connector-curvature="0" />
</svg>
