<?xml version="1.0" encoding="UTF-8" standalone="no"?>
<!-- Created with Inkscape (http://www.inkscape.org/) -->

<svg
   xmlns:dc="http://purl.org/dc/elements/1.1/"
   xmlns:cc="http://creativecommons.org/ns#"
   xmlns:rdf="http://www.w3.org/1999/02/22-rdf-syntax-ns#"
   xmlns:svg="http://www.w3.org/2000/svg"
   xmlns="http://www.w3.org/2000/svg"
   xmlns:sodipodi="http://sodipodi.sourceforge.net/DTD/sodipodi-0.dtd"
   xmlns:inkscape="http://www.inkscape.org/namespaces/inkscape"
   viewBox="0 0 140 140"
   id="svg2"
   version="1.1"
   inkscape:version="0.48.4 r9939"
   sodipodi:docname="Water.svg"
   width="100%"
   height="100%"
   inkscape:export-filename="D:\c\KTANE\Battleship\Assets\Misc\Water.png"
   inkscape:export-xdpi="480"
   inkscape:export-ydpi="480">
  <defs
     id="defs4" />
  <sodipodi:namedview
     id="base"
     pagecolor="#80a0c0"
     bordercolor="#666666"
     borderopacity="1.0"
     inkscape:pageopacity="1"
     inkscape:pageshadow="2"
     inkscape:zoom="6.8571429"
     inkscape:cx="70"
     inkscape:cy="70"
     inkscape:document-units="px"
     inkscape:current-layer="layer1"
     showgrid="true">
    <inkscape:grid
       type="xygrid"
       id="grid2985"
       empspacing="5"
       visible="true"
       enabled="true"
       snapvisiblegridlinesonly="true"
       spacingx="1px"
       spacingy="1px" />
  </sodipodi:namedview>
  <metadata
     id="metadata7">
    <rdf:RDF>
      <cc:Work
         rdf:about="">
        <dc:format>image/svg+xml</dc:format>
        <dc:type
           rdf:resource="http://purl.org/dc/dcmitype/StillImage" />
        <dc:title />
      </cc:Work>
    </rdf:RDF>
  </metadata>
  <g
     inkscape:label="Layer 1"
     inkscape:groupmode="layer"
     id="layer1"
     transform="translate(0,-912.36218)">
    <path
       sodipodi:type="arc"
       style="color:#000000;fill:#00005c;fill-opacity:1;stroke:none;stroke-width:1;marker:none;visibility:visible;display:inline;overflow:visible;enable-background:accumulate"
       id="path4279"
       sodipodi:cx="50"
       sodipodi:cy="50"
       sodipodi:rx="48"
       sodipodi:ry="48"
       d="M 98,50 A 48,48 0 1 1 2,50 48,48 0 1 1 98,50 z"
       transform="translate(20,932.36218)" />
    <path
       style="font-size:medium;font-style:normal;font-variant:normal;font-weight:normal;font-stretch:normal;text-indent:0;text-align:start;text-decoration:none;line-height:normal;letter-spacing:normal;word-spacing:normal;text-transform:none;direction:ltr;block-progression:tb;writing-mode:lr-tb;text-anchor:start;baseline-shift:baseline;color:#000000;fill:#40c0ff;fill-opacity:1;fill-rule:nonzero;stroke:none;stroke-width:80;marker:none;visibility:visible;display:inline;overflow:visible;enable-background:accumulate;font-family:Sans;-inkscape-font-specification:Sans"
       d="M 51.100764,997.3724 51.117537,997.3724 C 57.792206,997.3754 62.885731,998.632 71.770194,1002.4223 75.337669,1003.8913 80.075745,1005.4986 81.55126,1005.7778 L 81.584813,1005.7945 81.618366,1005.7945 C 87.268627,1007.0228 96.156561,1006.4781 100.5262,1004.8046 L 100.5262,1004.8214 C 100.7923,1004.7024 101.09276,1004.5732 101.56638,1004.5362 102.11311,1004.4936 103.00089,1004.7292 103.52931,1005.2577 104.58616,1006.3145 104.35139,1007.0631 104.35139,1007.7239 104.35139,1008.4957 104.06122,1009.4605 103.47897,1010.1398 102.89673,1010.8191 102.17628,1011.2062 101.39862,1011.5156 99.843285,1012.1341 97.843064,1012.5121 94.738089,1012.9752 L 94.721308,1012.9752 94.704535,1012.9752 C 90.250807,1013.58 87.462155,1013.5828 82.692102,1012.9248 L 82.67533,1012.908 82.641777,1012.908 C 78.95336,1012.3226 74.432348,1010.8023 65.898193,1007.2374 L 65.881421,1007.2374 C 56.65958,1003.3735 48.114064,1002.8946 39.45743,1005.6435 38.635632,1005.9052 37.420511,1005.8042 36.638874,1005.1402 35.85617,1004.4753 35.632669,1003.6057 35.615471,1002.8921 35.581075,1001.4646 36.284816,1000.0952 37.746163,999.3354 L 37.762943,999.3354 37.762943,999.3185 C 39.233828,998.5621 41.097403,998.1906 43.43361,997.8589 45.762931,997.5282 48.462556,997.3457 51.100764,997.3724 z M 49.389497,981.98777 C 49.798959,981.98329 50.211473,981.98314 50.631006,981.98777 51.110465,981.99305 51.58289,982.00391 52.073834,982.02132 L 52.090614,982.02132 52.107395,982.02132 C 59.153528,982.34904 62.805021,983.23016 71.350761,986.85314 71.356211,986.85544 71.362093,986.85082 71.367542,986.85314 74.777942,988.26896 79.335684,989.89482 81.014396,990.2924 L 81.031168,990.2924 C 85.259989,991.3377 93.472842,991.3193 97.23788,990.3092 L 97.25466,990.2924 97.271433,990.2924 C 99.460002,989.72501 100.35335,989.32865 101.83482,989.45356 102.20518,989.48486 102.69819,989.56818 103.19377,989.90657 103.68934,990.245 104.05128,990.8558 104.18362,991.3159 104.44829,992.2359 104.27731,992.6363 104.21717,993.0271 104.0729,993.9536 103.241,995.2383 102.30458,995.745 101.3349,996.2697 100.3306,996.5085 98.714268,996.9194 L 98.680715,996.9362 98.663935,996.9362 C 93.564141,998.1362 85.561526,998.1839 80.326531,997.0537 L 80.309751,997.0537 C 78.180288,996.5669 74.635505,995.382 71.921186,994.2519 71.917445,994.2503 71.908147,994.2534 71.904406,994.2519 62.500246,990.405 59.479126,989.4316 55.060164,988.86636 50.673564,988.32608 43.534261,988.97163 41.437138,989.77239 40.20478,990.2539 39.322291,990.6703 37.880383,990.326 37.156677,990.1532 36.278006,989.48641 35.951009,988.7154 35.634895,987.97003 35.6809,987.35376 35.766463,986.81958 35.76695,986.81605 35.765961,986.80632 35.766463,986.8028 35.768914,986.78764 35.763959,986.78427 35.766463,986.76925 36.00632,985.22755 37.132995,984.43 38.148815,983.90036 39.17776,983.36387 40.375142,982.99972 41.772676,982.70918 43.912643,982.26429 46.523273,982.01907 49.389497,981.98777 z M 51.201424,966.50247 C 57.817489,966.52654 64.089297,968.31929 74.102212,972.52546 83.452878,976.50337 91.401643,976.93158 100.66042,974.10251 L 100.66042,974.11929 C 100.95467,974.02352 101.29143,973.92475 101.75093,973.93474 102.23539,973.94528 102.9071,974.13405 103.39509,974.55549 104.37107,975.39838 104.35139,976.33014 104.35139,976.9714 104.35139,977.62542 104.18767,978.41555 103.74741,979.08532 103.30715,979.75509 102.67558,980.22781 102.03615,980.54493 100.7601,981.17777 99.300144,981.43834 97.12044,981.76966 97.115633,981.77039 97.108483,981.76893 97.103668,981.76966 91.622826,982.63736 89.201186,982.70649 85.040909,982.3233 L 85.024128,982.3233 C 79.87234,981.81933 75.627442,980.58497 68.71675,977.59215 L 68.699978,977.59215 C 65.777933,976.31055 61.414552,974.75396 59.38867,974.21995 54.648561,973.04714 46.966899,973.00468 42.460541,974.20317 L 42.460541,974.21995 C 40.891609,974.63283 39.924483,974.8632 38.954119,974.90782 38.468933,974.93012 37.921565,974.92274 37.276405,974.60582 36.650058,974.29815 36.146399,973.62491 35.951009,973.12944 L 35.934236,973.12944 C 35.930951,973.12106 35.937452,973.12111 35.934236,973.11266 35.931693,973.10594 35.919875,973.08576 35.917456,973.0791 L 35.934236,973.0791 C 35.678001,972.39056 35.602679,971.48881 35.900683,970.71353 36.205567,969.92034 36.770813,969.36208 37.343511,968.96871 38.48855,968.18222 39.818537,967.81375 41.57135,967.49232 45.100936,966.8413 48.194603,966.49153 51.201424,966.50247 z M 50.698112,951.30238 C 50.703793,951.30235 50.709212,951.30243 50.714893,951.30238 57.809319,951.24894 62.989242,952.45663 71.166216,955.99998 L 71.182996,955.99998 C 78.695309,959.30961 83.238984,960.37336 88.949975,960.37881 L 88.966755,960.37881 C 91.570436,960.3262 95.014049,960.02938 95.795044,959.84195 L 95.828605,959.84195 95.862158,959.84195 C 98.840519,959.22481 100.15663,958.86411 101.46572,958.8521 101.79299,958.84909 102.15518,958.87093 102.62334,959.03664 103.09151,959.20236 103.67017,959.61815 103.96551,960.11038 104.5562,961.09486 104.35139,961.60975 104.35139,961.88875 104.35139,962.61353 104.02094,963.58371 103.42865,964.204 102.83635,964.82429 102.17579,965.13404 101.44894,965.39518 99.99876,965.9162 98.089135,966.25149 95.040074,966.73735 95.033218,966.73851 95.030157,966.73619 95.023301,966.73735 90.388025,967.51712 86.567808,967.46053 81.68548,966.51925 81.67874,966.51802 81.67544,966.52048 81.6687,966.51925 77.673374,965.78575 74.220958,964.56246 65.831087,961.06668 56.564308,957.18395 49.124837,956.74751 39.558097,959.53996 39.237283,959.63162 38.942989,959.72976 38.517914,959.77484 38.092831,959.81992 37.285216,959.83278 36.538214,959.18764 35.791205,958.5425 35.695732,957.71933 35.682577,957.29182 35.670674,956.90496 35.708671,956.63723 35.749683,956.35231 35.753996,956.32237 35.76212,956.29881 35.766463,956.26842 35.892405,955.36997 36.596308,954.0831 37.528064,953.51697 38.490351,952.93228 39.474791,952.68071 41.000933,952.29223 L 41.017705,952.29223 41.017705,952.27546 C 43.471855,951.66192 47.060037,951.3035 50.698112,951.30238 z"
       id="path2988"
       inkscape:connector-curvature="0" />
  </g>
</svg>
