<?xml version="1.0" encoding="UTF-8" standalone="no"?>
<!-- Created with Inkscape (http://www.inkscape.org/) -->

<svg
   xmlns:dc="http://purl.org/dc/elements/1.1/"
   xmlns:cc="http://creativecommons.org/ns#"
   xmlns:rdf="http://www.w3.org/1999/02/22-rdf-syntax-ns#"
   xmlns:svg="http://www.w3.org/2000/svg"
   xmlns="http://www.w3.org/2000/svg"
   xmlns:sodipodi="http://sodipodi.sourceforge.net/DTD/sodipodi-0.dtd"
   xmlns:inkscape="http://www.inkscape.org/namespaces/inkscape"
   viewBox="0 0 120 120"
   id="svg2"
   version="1.1"
   inkscape:version="0.48.4 r9939"
   sodipodi:docname="Water.svg"
   width="100%"
   height="100%">
  <defs
     id="defs4" />
  <sodipodi:namedview
     id="base"
     pagecolor="#cccccc"
     bordercolor="#666666"
     borderopacity="1.0"
     inkscape:pageopacity="1"
     inkscape:pageshadow="2"
     inkscape:zoom="8"
     inkscape:cx="60"
     inkscape:cy="60"
     inkscape:document-units="px"
     inkscape:current-layer="layer1"
     showgrid="true">
    <inkscape:grid
       type="xygrid"
       id="grid2985"
       empspacing="5"
       visible="true"
       enabled="true"
       snapvisiblegridlinesonly="true"
       spacingx="1px"
       spacingy="1px" />
  </sodipodi:namedview>
  <metadata
     id="metadata7">
    <rdf:RDF>
      <cc:Work
         rdf:about="">
        <dc:format>image/svg+xml</dc:format>
        <dc:type
           rdf:resource="http://purl.org/dc/dcmitype/StillImage" />
        <dc:title />
      </cc:Work>
    </rdf:RDF>
  </metadata>
  <g
     inkscape:label="Layer 1"
     inkscape:groupmode="layer"
     id="layer1"
     transform="translate(0,-932.36218)">
    <path
       sodipodi:type="arc"
       style="color:#000000;fill:#00005c;fill-opacity:1;stroke:none;stroke-width:1;marker:none;visibility:visible;display:inline;overflow:visible;enable-background:accumulate"
       id="path4279"
       sodipodi:cx="50"
       sodipodi:cy="50"
       sodipodi:rx="48"
       sodipodi:ry="48"
       d="M 98,50 C 98,76.509668 76.509668,98 50,98 23.490332,98 2,76.509668 2,50 2,23.490332 23.490332,2 50,2 76.509668,2 98,23.490332 98,50 z"
       transform="translate(10,942.36218)" />
    <path
       style="font-size:medium;font-style:normal;font-variant:normal;font-weight:normal;font-stretch:normal;text-indent:0;text-align:start;text-decoration:none;line-height:normal;letter-spacing:normal;word-spacing:normal;text-transform:none;direction:ltr;block-progression:tb;writing-mode:lr-tb;text-anchor:start;baseline-shift:baseline;color:#000000;fill:#40c0ff;fill-opacity:1;fill-rule:nonzero;stroke:none;stroke-width:80;marker:none;visibility:visible;display:inline;overflow:visible;enable-background:accumulate;font-family:Sans;-inkscape-font-specification:Sans"
       d="M 41.100764,1007.3724 41.117537,1007.3724 C 47.792206,1007.3754 52.885731,1008.632 61.770194,1012.4223 65.337669,1013.8913 70.075745,1015.4986 71.55126,1015.7778 L 71.584813,1015.7945 71.618366,1015.7945 C 77.268627,1017.0228 86.156561,1016.4781 90.526202,1014.8046 L 90.526202,1014.8214 C 90.7923,1014.7024 91.092757,1014.5732 91.56638,1014.5362 92.113107,1014.4936 93.000891,1014.7292 93.529307,1015.2577 94.586155,1016.3145 94.351392,1017.0631 94.351392,1017.7239 94.351392,1018.4957 94.061225,1019.4605 93.478974,1020.1398 92.896731,1020.8191 92.176279,1021.2062 91.398615,1021.5156 89.843285,1022.1341 87.843064,1022.5121 84.738089,1022.9752 L 84.721308,1022.9752 84.704535,1022.9752 C 80.250807,1023.58 77.462155,1023.5828 72.692102,1022.9248 L 72.67533,1022.908 72.641777,1022.908 C 68.95336,1022.3226 64.432348,1020.8023 55.898193,1017.2374 L 55.881421,1017.2374 C 46.65958,1013.3735 38.114064,1012.8946 29.45743,1015.6435 28.635632,1015.9052 27.420511,1015.8042 26.638874,1015.1402 25.85617,1014.4753 25.632669,1013.6057 25.615471,1012.8921 25.581075,1011.4646 26.284816,1010.0952 27.746163,1009.3354 L 27.762943,1009.3354 27.762943,1009.3185 C 29.233828,1008.5621 31.097403,1008.1906 33.43361,1007.8589 35.762931,1007.5282 38.462556,1007.3457 41.100764,1007.3724 z M 39.389497,991.98777 C 39.798959,991.98329 40.211473,991.98314 40.631006,991.98777 41.110465,991.99305 41.58289,992.00391 42.073834,992.02132 L 42.090614,992.02132 42.107395,992.02132 C 49.153528,992.34904 52.805021,993.23016 61.350761,996.85314 61.356211,996.85544 61.362093,996.85082 61.367542,996.85314 64.777942,998.26896 69.335684,999.89482 71.014396,1000.2924 L 71.031168,1000.2924 C 75.259989,1001.3377 83.472842,1001.3193 87.23788,1000.3092 L 87.25466,1000.2924 87.271433,1000.2924 C 89.460002,999.72501 90.353351,999.32865 91.83482,999.45356 92.205179,999.48486 92.698195,999.56818 93.193769,999.90657 93.689335,1000.245 94.051285,1000.8558 94.183619,1001.3159 94.448287,1002.2359 94.277314,1002.6363 94.217172,1003.0271 94.072904,1003.9536 93.241003,1005.2383 92.304578,1005.745 91.334902,1006.2697 90.330604,1006.5085 88.714268,1006.9194 L 88.680715,1006.9362 88.663935,1006.9362 C 83.564141,1008.1362 75.561526,1008.1839 70.326531,1007.0537 L 70.309751,1007.0537 C 68.180288,1006.5669 64.635505,1005.382 61.921186,1004.2519 61.917445,1004.2503 61.908147,1004.2534 61.904406,1004.2519 52.500246,1000.405 49.479126,999.4316 45.060164,998.86636 40.673564,998.32608 33.534261,998.97163 31.437138,999.77239 30.20478,1000.2539 29.322291,1000.6703 27.880383,1000.326 27.156677,1000.1532 26.278006,999.48641 25.951009,998.7154 25.634895,997.97003 25.6809,997.35376 25.766463,996.81958 25.76695,996.81605 25.765961,996.80632 25.766463,996.8028 25.768914,996.78764 25.763959,996.78427 25.766463,996.76925 26.00632,995.22755 27.132995,994.43 28.148815,993.90036 29.17776,993.36387 30.375142,992.99972 31.772676,992.70918 33.912643,992.26429 36.523273,992.01907 39.389497,991.98777 z M 41.201424,976.50247 C 47.817489,976.52654 54.089297,978.31929 64.102212,982.52546 73.452878,986.50337 81.401643,986.93158 90.660415,984.10251 L 90.660415,984.11929 C 90.954673,984.02352 91.291425,983.92475 91.750934,983.93474 92.235393,983.94528 92.907103,984.13405 93.395095,984.55549 94.371071,985.39838 94.351392,986.33014 94.351392,986.9714 94.351392,987.62542 94.187669,988.41555 93.747414,989.08532 93.307151,989.75509 92.675579,990.22781 92.036146,990.54493 90.7601,991.17777 89.300144,991.43834 87.12044,991.76966 87.115633,991.77039 87.108483,991.76893 87.103668,991.76966 81.622826,992.63736 79.201186,992.70649 75.040909,992.3233 L 75.024128,992.3233 C 69.87234,991.81933 65.627442,990.58497 58.71675,987.59215 L 58.699978,987.59215 C 55.777933,986.31055 51.414552,984.75396 49.38867,984.21995 44.648561,983.04714 36.966899,983.00468 32.460541,984.20317 L 32.460541,984.21995 C 30.891609,984.63283 29.924483,984.8632 28.954119,984.90782 28.468933,984.93012 27.921565,984.92274 27.276405,984.60582 26.650058,984.29815 26.146399,983.62491 25.951009,983.12944 L 25.934236,983.12944 C 25.930951,983.12106 25.937452,983.12111 25.934236,983.11266 25.931693,983.10594 25.919875,983.08576 25.917456,983.0791 L 25.934236,983.0791 C 25.678001,982.39056 25.602679,981.48881 25.900683,980.71353 26.205567,979.92034 26.770813,979.36208 27.343511,978.96871 28.48855,978.18222 29.818537,977.81375 31.57135,977.49232 35.100936,976.8413 38.194603,976.49153 41.201424,976.50247 z M 40.698112,961.30238 C 40.703793,961.30235 40.709212,961.30243 40.714893,961.30238 47.809319,961.24894 52.989242,962.45663 61.166216,965.99998 L 61.182996,965.99998 C 68.695309,969.30961 73.238984,970.37336 78.949975,970.37881 L 78.966755,970.37881 C 81.570436,970.3262 85.014049,970.02938 85.795044,969.84195 L 85.828605,969.84195 85.862158,969.84195 C 88.840519,969.22481 90.156632,968.86411 91.465721,968.8521 91.792989,968.84909 92.155178,968.87093 92.623344,969.03664 93.09151,969.20236 93.670167,969.61815 93.965512,970.11038 94.556196,971.09486 94.351392,971.60975 94.351392,971.88875 94.351392,972.61353 94.020939,973.58371 93.428648,974.204 92.836349,974.82429 92.175792,975.13404 91.448941,975.39518 89.99876,975.9162 88.089135,976.25149 85.040074,976.73735 85.033218,976.73851 85.030157,976.73619 85.023301,976.73735 80.388025,977.51712 76.567808,977.46053 71.68548,976.51925 71.67874,976.51802 71.67544,976.52048 71.6687,976.51925 67.673374,975.78575 64.220958,974.56246 55.831087,971.06668 46.564308,967.18395 39.124837,966.74751 29.558097,969.53996 29.237283,969.63162 28.942989,969.72976 28.517914,969.77484 28.092831,969.81992 27.285216,969.83278 26.538214,969.18764 25.791205,968.5425 25.695732,967.71933 25.682577,967.29182 25.670674,966.90496 25.708671,966.63723 25.749683,966.35231 25.753996,966.32237 25.76212,966.29881 25.766463,966.26842 25.892405,965.36997 26.596308,964.0831 27.528064,963.51697 28.490351,962.93228 29.474791,962.68071 31.000933,962.29223 L 31.017705,962.29223 31.017705,962.27546 C 33.471855,961.66192 37.060037,961.3035 40.698112,961.30238 z"
       id="path2988"
       inkscape:connector-curvature="0" />
  </g>
</svg>
