<svg xmlns="http://www.w3.org/2000/svg" viewBox="0 0 348 348" fill="none"><path d="M5.08 5.776h336.91v337.67H5.08z" stroke-width="2" stroke="#000"/><path d="M282.734 40.554c0-8.376 6.966-15.165 15.56-15.165 4.126 0 8.084 1.594 11 4.44 2.92 2.842 4.56 6.7 4.56 10.722 0 8.376-6.967 15.165-15.56 15.165-8.594 0-15.56-6.79-15.56-15.166z" stroke-width="2" stroke="#000"/><rect width="33.50207" height="33.50207" x="50.64378" y="47.91878" rx="0" ry="0" color="#000" stroke="#000" stroke-width=".83755" overflow="visible"/><rect width="33.50207" height="33.50207" x="84.14585" y="47.91878" rx="0" ry="0" color="#000" stroke="#000" stroke-width=".83755" overflow="visible"/><rect width="33.50207" height="33.50207" x="117.64793" y="47.91878" rx="0" ry="0" color="#000" stroke="#000" stroke-width=".83755" overflow="visible"/><rect width="33.50207" height="33.50207" x="151.14999" y="47.91878" rx="0" ry="0" color="#000" stroke="#000" stroke-width=".83755" overflow="visible"/><rect width="33.50207" height="33.50207" x="184.65207" y="47.91878" rx="0" ry="0" color="#000" stroke="#000" stroke-width=".83755" overflow="visible"/><rect width="33.50207" height="33.50207" x="218.15414" y="47.91878" rx="0" ry="0" color="#000" stroke="#000" stroke-width=".83755" overflow="visible"/><rect width="33.50207" height="33.50207" x="50.64378" y="81.42085" rx="0" ry="0" color="#000" stroke="#000" stroke-width=".83755" overflow="visible"/><rect width="33.50207" height="33.50207" x="84.14585" y="81.42085" rx="0" ry="0" color="#000" stroke="#000" stroke-width=".83755" overflow="visible"/><rect width="33.50207" height="33.50207" x="117.64793" y="81.42085" rx="0" ry="0" color="#000" stroke="#000" stroke-width=".83755" overflow="visible"/><rect width="33.50207" height="33.50207" x="151.14999" y="81.42085" rx="0" ry="0" color="#000" stroke="#000" stroke-width=".83755" overflow="visible"/><rect width="33.50207" height="33.50207" x="184.65207" y="81.42085" rx="0" ry="0" color="#000" stroke="#000" stroke-width=".83755" overflow="visible"/><rect width="33.50207" height="33.50207" x="218.15414" y="81.42085" rx="0" ry="0" color="#000" stroke="#000" stroke-width=".83755" overflow="visible"/><rect width="33.50207" height="33.50207" x="50.64378" y="114.92293" rx="0" ry="0" color="#000" stroke="#000" stroke-width=".83755" overflow="visible"/><rect width="33.50207" height="33.50207" x="84.14585" y="114.92293" rx="0" ry="0" color="#000" stroke="#000" stroke-width=".83755" overflow="visible"/><rect width="33.50207" height="33.50207" x="117.64793" y="114.92293" rx="0" ry="0" color="#000" stroke="#000" stroke-width=".83755" overflow="visible"/><rect width="33.50207" height="33.50207" x="151.14999" y="114.92293" rx="0" ry="0" color="#000" stroke="#000" stroke-width=".83755" overflow="visible"/><rect width="33.50207" height="33.50207" x="184.65207" y="114.92293" rx="0" ry="0" color="#000" stroke="#000" stroke-width=".83755" overflow="visible"/><rect width="33.50207" height="33.50207" x="218.15414" y="114.92293" rx="0" ry="0" color="#000" stroke="#000" stroke-width=".83755" overflow="visible"/><rect width="33.50207" height="33.50207" x="50.64378" y="148.425" rx="0" ry="0" color="#000" stroke="#000" stroke-width=".83755" overflow="visible"/><rect width="33.50207" height="33.50207" x="84.14585" y="148.425" rx="0" ry="0" color="#000" stroke="#000" stroke-width=".83755" overflow="visible"/><rect width="33.50207" height="33.50207" x="117.64793" y="148.425" rx="0" ry="0" color="#000" stroke="#000" stroke-width=".83755" overflow="visible"/><rect width="33.50207" height="33.50207" x="151.14999" y="148.425" rx="0" ry="0" color="#000" stroke="#000" stroke-width=".83755" overflow="visible"/><rect width="33.50207" height="33.50207" x="184.65207" y="148.425" rx="0" ry="0" color="#000" stroke="#000" stroke-width=".83755" overflow="visible"/><rect width="33.50207" height="33.50207" x="218.15414" y="148.425" rx="0" ry="0" color="#000" stroke="#000" stroke-width=".83755" overflow="visible"/><rect width="33.50207" height="33.50207" x="50.64378" y="181.92708" rx="0" ry="0" color="#000" stroke="#000" stroke-width=".83755" overflow="visible"/><rect width="33.50207" height="33.50207" x="84.14585" y="181.92708" rx="0" ry="0" color="#000" stroke="#000" stroke-width=".83755" overflow="visible"/><rect width="33.50207" height="33.50207" x="117.64793" y="181.92708" rx="0" ry="0" color="#000" stroke="#000" stroke-width=".83755" overflow="visible"/><rect width="33.50207" height="33.50207" x="151.14999" y="181.92708" rx="0" ry="0" color="#000" stroke="#000" stroke-width=".83755" overflow="visible"/><rect width="33.50207" height="33.50207" x="184.65207" y="181.92708" rx="0" ry="0" color="#000" stroke="#000" stroke-width=".83755" overflow="visible"/><rect width="33.50207" height="33.50207" x="218.15414" y="181.92708" rx="0" ry="0" color="#000" stroke="#000" stroke-width=".83755" overflow="visible"/><rect width="33.50207" height="33.50207" x="50.64378" y="215.42915" rx="0" ry="0" color="#000" stroke="#000" stroke-width=".83755" overflow="visible"/><rect width="33.50207" height="33.50207" x="84.14585" y="215.42915" rx="0" ry="0" color="#000" stroke="#000" stroke-width=".83755" overflow="visible"/><rect width="33.50207" height="33.50207" x="117.64793" y="215.42915" rx="0" ry="0" color="#000" stroke="#000" stroke-width=".83755" overflow="visible"/><rect width="33.50207" height="33.50207" x="151.14999" y="215.42915" rx="0" ry="0" color="#000" stroke="#000" stroke-width=".83755" overflow="visible"/><rect width="33.50207" height="33.50207" x="184.65207" y="215.42915" rx="0" ry="0" color="#000" stroke="#000" stroke-width=".83755" overflow="visible"/><rect width="33.50207" height="33.50207" x="218.15414" y="215.42915" rx="0" ry="0" color="#000" stroke="#000" stroke-width=".83755" overflow="visible"/><path d="M319.81875 138.0625a20 20 0 1 1-40 0 20 20 0 1 1 40 0zm0 84.96875a20 20 0 1 1-40 0 20 20 0 1 1 40 0zm0 84.96875a20 20 0 1 1-40 0 20 20 0 1 1 40 0z" color="#000" stroke="#000" overflow="visible"/><path color="#000" stroke="#000" stroke-width=".73339" overflow="visible" d="M89.71806 268.1167h14.6678v14.6678h-14.6678zm17.60138 0h14.6678v14.6678h-14.6678zm17.60136 0h14.66782v14.6678h-14.6678zm17.60137 0h5.86713c2.93356 0 7.3339 1.46678 8.80068 7.3339-1.46678 5.86712-5.86712 7.3339-8.80068 7.3339h-5.86713zm-55.73767 0h-5.86712c-2.93356 0-7.3339 1.46678-8.80068 7.3339 1.46678 5.86712 5.86712 7.3339 8.80068 7.3339h5.86712zm2.93356 20.53494h14.6678v14.6678h-14.6678zm17.60138 0h14.6678v14.6678h-14.6678zm17.60136 0h5.86713c2.93356 0 7.3339 1.46677 8.80068 7.3339-1.46675 5.8671-5.8671 7.3339-8.80065 7.3339h-5.86713zm-38.1363 0h-5.86712c-2.93356 0-7.3339 1.46677-8.80068 7.3339 1.46678 5.8671 5.86712 7.3339 8.80068 7.3339h5.86712zm2.93356 20.5349h14.6678v14.6678h-14.6678zm17.60138.00002h5.86712c2.93356 0 7.3339 1.46678 8.80068 7.3339-1.46678 5.86713-5.86712 7.3339-8.80068 7.3339h-5.86712zm-20.53494 0h-5.86712c-2.93356 0-7.3339 1.46678-8.80068 7.3339 1.46678 5.86713 5.86712 7.3339 8.80068 7.3339h5.86712zm130.5435 0h5.86712c2.93356 0 7.3339 1.46678 8.80068 7.3339-1.46678 5.86713-5.86712 7.3339-8.80068 7.3339H217.328zm-2.93357 0h-5.86712c-2.93353 0-7.3339 1.46678-8.80065 7.3339 1.46678 5.86713 5.86712 7.3339 8.80068 7.3339h5.86713zm17.60137-13.20104a7.3339 7.3339 0 1 1-14.6678 0 7.3339 7.3339 0 1 1 14.6678 0z"/></svg>